<svg width="1080" height="450" viewBox="0 0 1080 450" fill="none" xmlns="http://www.w3.org/2000/svg">
<path d="M239.517 302.396C151.58 322.829 134.765 406.487 137.35 445.762H970.194C1095.17 357.428 1095.17 217.105 1028.12 145.953C961.072 74.8009 923.671 126.797 876.693 100.799C819.68 69.248 824.241 5.06065e-05 757.194 0C682.393 -5.64589e-05 680.112 59.2933 563.806 51.5396C447.5 43.7858 400.065 193.844 394.592 205.702C389.119 217.561 349.438 276.854 239.517 302.396Z" fill="#FDC32D"/>
<path d="M165.319 315.222C146.853 312.272 157.091 343.128 142.7 352.716C130.819 360.633 96.7734 353.97 94.586 367.662C91.1321 389.281 138.264 396.271 160.38 383.716C183.238 370.74 195.532 320.049 165.319 315.222Z" fill="#F25C05"/>
<path d="M57.2273 347.691C51.3892 349.516 51.146 336.897 51.7541 330.359C53.3664 313.027 68.0934 330.359 68.6299 334.92C69.1128 339.025 64.525 345.411 57.2273 347.691Z" fill="#32A64F"/>
<path d="M100.852 314.257C82.8131 309.46 91.0893 293.902 96.3146 283.168C104.103 267.171 125.216 244.984 131.13 262.536C137.044 280.087 123.401 320.254 100.852 314.257Z" fill="#418EF2"/>
<rect x="412.032" y="75.7131" width="375.815" height="204.867" rx="1.00963" fill="#F4F4F4"/>
<circle cx="434.079" cy="97.0815" r="6.44448" fill="#F25C05"/>
<circle cx="453.752" cy="97.0815" r="6.44448" fill="#FDC32D"/>
<circle cx="473.424" cy="97.0815" r="6.44448" fill="#32A64F"/>
<rect x="448.664" y="124.555" width="102.433" height="35.9534" rx="1.00963" fill="white"/>
<path d="M449.003 174.415H542.618" stroke="#32A64F" stroke-width="3.02888" stroke-linecap="round"/>
<path d="M480.353 228.572L507.958 191.901" stroke="#FDC32D" stroke-width="3.02888" stroke-linecap="round"/>
<path d="M480.208 207.995C463.5 207.995 449.892 221.27 449.359 237.849C449.341 238.406 449.794 238.86 450.352 238.86H510.064C510.622 238.86 511.075 238.406 511.057 237.849C510.524 221.27 496.916 207.995 480.208 207.995Z" fill="#F25C05"/>
<rect x="645.39" y="111.666" width="101.077" height="143.814" fill="white"/>
<rect x="640.642" y="106.918" width="9.49714" height="9.49714" rx="1.00963" fill="#F25C05"/>
<rect x="741.718" y="106.918" width="9.49714" height="9.49714" rx="1.00963" fill="#F25C05"/>
<rect x="640.642" y="250.732" width="9.49714" height="9.49714" rx="1.00963" fill="#F25C05"/>
<path d="M725.475 149.011L728.973 156.275L724.061 160.447L717.46 155.818C717.948 152.2 715.505 146.354 714.222 143.883C716.453 145.549 721.826 148.906 725.475 149.011Z" fill="#FDC32D"/>
<path fill-rule="evenodd" clip-rule="evenodd" d="M714.995 145.497L714.222 143.883L715.688 144.904L721.815 152.119L721.12 152.71L714.995 145.497Z" fill="white"/>
<path d="M722.226 151.754C722.59 152.182 722.538 152.824 722.11 153.188C721.681 153.552 721.039 153.499 720.675 153.071C720.311 152.643 720.364 152.001 720.792 151.637C721.221 151.273 721.863 151.325 722.226 151.754Z" fill="white"/>
<path d="M713.566 144.228C711.192 166.953 669.811 194.427 632.84 194.427H679.309" stroke="#418EF2" stroke-width="2.01926" stroke-linecap="round"/>
<circle cx="632.501" cy="194.427" r="2.71347" fill="#2B69CD"/>
<rect x="676.595" y="192.392" width="4.0702" height="4.0702" fill="#2B69CD"/>
<path d="M902.83 221.223V445.762H801.754H666.759V397.768V349.773V304.323H646.817V299.235H671.847L749.859 221.223H884.854H902.83Z" fill="#F4F4F4"/>
<path fill-rule="evenodd" clip-rule="evenodd" d="M801.754 304.323H749.859H666.759H646.361V299.235H671.847L749.859 221.223H884.854L807.859 299.235L801.754 304.323Z" fill="#DADADA"/>
<path d="M666.759 445.762V397.768M666.759 304.323V349.773M801.754 349.773H666.759M801.754 397.768H666.759M666.759 397.768V349.773" stroke="#DADADA" stroke-width="3.02888"/>
<path d="M632.501 299.235H807.859L873.853 232.369L865.251 185.798L851.617 177.692L593.71 299.235H632.501Z" fill="white" fill-opacity="0.43"/>
<path d="M742.736 299.235H663.766C661.456 299.235 659.997 296.754 661.118 294.735L683.156 255.066C684.759 252.181 687.8 250.392 691.1 250.392H764.723C767.032 250.392 768.492 252.873 767.371 254.892L742.736 299.235Z" fill="#0B1940"/>
<path d="M763.255 256.146L741.444 294.923C740.908 295.877 739.899 296.467 738.805 296.467H668.425C666.108 296.467 664.649 293.972 665.785 291.953L685.012 257.769C686.622 254.908 689.649 253.137 692.932 253.137H761.495C763.039 253.137 764.012 254.8 763.255 256.146Z" fill="#0E2565"/>
<path fill-rule="evenodd" clip-rule="evenodd" d="M745.335 253.137L683.761 296.467H738.975C739.964 296.467 740.876 295.934 741.361 295.072L763.418 255.856C764.102 254.64 763.223 253.137 761.828 253.137H745.335Z" fill="#0B1940"/>
<path d="M865.454 169.938L865.251 185.798L851.617 177.692L865.454 169.938Z" fill="#DADADA"/>
<path d="M865.454 169.938L866.968 169.957C866.975 169.416 866.693 168.912 866.228 168.636C865.763 168.359 865.185 168.352 864.713 168.616L865.454 169.938ZM865.251 185.798L864.477 187.1C864.942 187.377 865.519 187.384 865.991 187.119C866.463 186.855 866.758 186.359 866.765 185.818L865.251 185.798ZM851.617 177.692L850.876 176.371C850.404 176.636 850.109 177.132 850.102 177.673C850.095 178.214 850.378 178.717 850.843 178.994L851.617 177.692ZM904.345 164.24C904.345 160.032 902.959 155.249 899.66 151.496C896.327 147.704 891.148 145.088 883.836 145.088V148.117C890.363 148.117 894.681 150.419 897.385 153.496C900.124 156.611 901.316 160.647 901.316 164.24H904.345ZM883.836 145.088C876.452 145.088 871.38 148.021 868.228 152.759C865.142 157.397 864.006 163.594 864.006 170.006H867.035C867.035 163.868 868.137 158.364 870.75 154.437C873.296 150.61 877.382 148.117 883.836 148.117V145.088ZM863.94 169.918L863.737 185.779L866.765 185.818L866.968 169.957L863.94 169.918ZM866.025 184.497L852.391 176.39L850.843 178.994L864.477 187.1L866.025 184.497ZM852.357 179.013L866.194 171.259L864.713 168.616L850.876 176.371L852.357 179.013ZM904.345 446.44V164.24H901.316V446.44H904.345Z" fill="#DADADA"/>
<path d="M531.425 126.591C523.963 139.819 533.347 149.09 538.887 151.351C538.095 154.969 536.512 163.358 536.512 167.971C536.512 173.737 536.512 178.147 534.816 184.591C533.12 191.036 525.998 198.498 521.927 207.316C517.857 216.135 522.267 223.936 525.998 227.667C529.729 231.398 543.974 234.79 553.811 226.311C563.647 217.831 569.074 215.796 573.483 214.439C577.893 213.082 587.39 211.047 594.513 204.603C601.636 198.158 598.001 185.269 594.513 179.164C591.799 174.416 594.174 165.258 595.53 162.205C596.887 159.152 599.6 149.994 599.6 145.246C599.6 140.497 599.261 137.784 586.372 132.357C573.483 126.93 561.951 130.322 557.881 132.357C555.167 120.146 537.222 116.313 531.425 126.591Z" fill="black"/>
<path d="M667.098 409.13C667.55 410.035 669.404 412.658 675.917 409.13C684.057 404.721 694.472 398.955 695.496 400.651C696.432 402.347 698.911 405.758 699.725 406.844C699.272 407.974 697.014 411.166 693.215 413.879C692.13 411.98 691.18 410.127 690.841 409.438C689.424 410.109 688.016 410.834 686.771 411.505C682.361 413.879 676.256 418.627 670.829 417.949C666.759 417.44 665.967 411.166 667.098 409.13Z" fill="#197433"/>
<path fill-rule="evenodd" clip-rule="evenodd" d="M699.725 406.844C698.508 406.114 694.441 407.731 690.841 409.438C691.18 410.127 692.13 411.98 693.215 413.879C697.014 411.166 699.272 407.974 699.725 406.844Z" fill="#0B3617"/>
<path d="M620.63 298.217C613.168 294.826 604.349 296.861 598.244 298.217C592.412 299.513 565.224 321.237 552.454 306.326C555.167 319.565 565.275 346.042 583.998 346.042L638.267 346.042C638.607 346.042 642.541 347.263 644.712 348.077C647.425 349.095 669.811 356.896 670.829 357.914C671.847 358.931 698.642 407.434 699.999 407.434C701.355 407.434 706.104 408.452 718.993 398.277C721.367 396.241 724.081 394.885 725.098 395.224C723.742 392.171 696.946 331.457 692.876 327.726C688.806 323.995 649.46 305.406 633.519 301.27C631.171 301.564 626.47 301.162 621.308 298.544L620.63 298.217Z" fill="#32A64F"/>
<path d="M724.081 402.484C722.589 403.256 720.965 404.497 719.332 406.417C715.776 410.601 710.929 412.85 707.418 413.879C708.789 416.706 712.006 423.376 713.905 427.446C716.347 430.974 726.907 426.655 731.882 424.055L725.777 407.435C725.234 405.807 724.42 403.456 724.081 402.484Z" fill="#F8D0C7"/>
<path d="M681.004 428.125C686.16 431.11 694.459 425.525 697.964 422.359C698.416 422.02 699.727 421.545 701.355 422.359C703.39 423.376 718.654 430.838 724.759 434.569C729.643 437.554 729.281 443.275 728.49 445.762H675.917C674.831 437.351 678.856 430.499 681.004 428.125Z" fill="black" stroke="black" stroke-width="0.750815"/>
<path d="M713.905 427.446C716.347 430.974 726.907 426.655 731.882 424.054C732.56 423.7 735.161 423.376 735.613 424.054C736.97 426.09 748.163 431.856 755.625 434.23C761.594 436.129 763.539 442.71 763.765 445.762H710.853C707.868 438.707 711.644 430.612 713.905 427.446Z" fill="black" stroke="black" stroke-width="0.750815"/>
<path d="M638.267 346.042H583.998C599.148 350.339 629.449 357.914 646.408 377.247C659.543 392.222 664.95 404.947 667.098 409.131C667.55 410.035 669.404 412.658 675.917 409.131C684.057 404.721 694.472 398.955 695.496 400.651C687.477 387.27 671.607 358.692 670.829 357.914C669.811 356.896 647.425 349.095 644.712 348.077C642.541 347.263 638.607 346.042 638.267 346.042Z" fill="#1B8339"/>
<path d="M699.999 407.435C701.355 407.435 706.104 408.452 718.993 398.277C721.367 396.242 724.081 394.885 725.098 395.224C728.083 395.224 729.734 399.52 730.186 401.669C730.073 403.025 729.033 406.078 725.777 407.435C725.234 405.807 724.42 403.456 724.081 402.484C722.589 403.256 720.965 404.497 719.332 406.417C713.566 413.201 704.408 414.897 703.051 414.557C701.695 414.218 700.677 413.54 699.32 411.166C698.235 409.266 699.32 407.887 699.999 407.435Z" fill="#1B8339"/>
<path fill-rule="evenodd" clip-rule="evenodd" d="M725.777 407.435C729.033 406.078 730.073 403.025 730.186 401.669C729.09 401.23 726.805 401.075 724.081 402.484C724.42 403.456 725.234 405.807 725.777 407.435Z" fill="#125B27"/>
<path d="M690.841 409.438C689.424 410.11 688.016 410.834 686.771 411.505C683.44 413.298 679.142 416.446 674.899 417.587C676.03 419.517 678.834 424.326 681.004 428.125C686.16 431.11 694.459 425.524 697.964 422.359L693.215 413.879C692.13 411.98 691.18 410.127 690.841 409.438Z" fill="#F8D0C7"/>
<path d="M553.811 226.311C563.647 217.831 569.074 215.796 573.483 214.439C577.391 213.237 585.293 211.502 591.999 206.638C596.455 207.429 606.316 210.369 610.115 215.796C614.864 222.58 629.109 256.837 632.162 262.603C635.215 268.369 637.928 275.153 647.425 278.545C656.922 281.937 684.749 293.071 687.788 293.808C690.439 294.451 693.893 301.27 687.788 301.27H633.519C633.129 301.319 632.673 301.348 632.162 301.352C630.838 301.371 629.482 301.209 628.176 300.943C626.776 300.666 625.23 300.23 623.606 299.582C622.339 299.091 621.298 298.59 620.63 298.217C613.275 294.874 604.603 296.803 598.509 298.158L598.244 298.217C592.138 299.574 562.629 323.317 550.758 303.984C536.377 280.105 535.269 245.706 536.512 231.492C542.016 231.987 548.545 230.85 553.811 226.311Z" fill="#F8D0C7"/>
<path d="M573.483 214.439C569.074 215.796 563.647 217.831 553.811 226.311C548.545 230.85 542.016 231.987 536.512 231.492C535.269 245.706 536.377 280.105 550.758 303.984C560.026 319.078 580.045 307.916 591.284 301.649C594.441 299.889 596.905 298.515 598.244 298.217L598.509 298.158C604.603 296.803 613.275 294.874 620.63 298.217C621.298 298.59 622.339 299.091 623.605 299.582C620.161 298.21 616.361 295.888 612.829 292.112C609.992 289.08 606.483 284.929 602.895 280.509C611.175 271.937 628.62 256.355 632.162 262.603C631.033 260.47 628.371 254.437 625.225 247.338C619.868 235.249 613.107 220.07 610.115 215.796C606.316 210.369 596.455 207.429 591.999 206.638C586.289 210.78 579.71 212.653 575.47 213.86C574.731 214.071 574.063 214.261 573.483 214.439Z" fill="#418EF2"/>
<path fill-rule="evenodd" clip-rule="evenodd" d="M628.904 255.618C628.904 255.618 628.904 255.618 628.904 255.618L628.903 255.616C625.361 249.368 606.415 265.985 598.135 274.557L598.136 274.558C598.296 274.76 598.456 274.963 598.616 275.166C600.03 276.953 601.469 278.753 602.895 280.509C611.175 271.937 628.62 256.355 632.162 262.603C631.641 261.618 630.793 259.802 629.721 257.433C629.461 256.859 629.189 256.253 628.904 255.618ZM628.176 300.943C626.776 300.666 625.23 300.23 623.605 299.582C624.935 300.098 626.515 300.605 628.176 300.943ZM632.162 301.352C630.838 301.371 629.482 301.209 628.176 300.943C629.707 301.246 631.064 301.359 632.162 301.352ZM633.519 301.27L632.162 301.352C632.673 301.348 633.129 301.319 633.519 301.27Z" fill="#2B69CD"/>
<path d="M586.901 258.395C590.444 263.167 596.213 272.482 603.424 279.693" stroke="#2B69CD" stroke-width="2.01926"/>
<path d="M702.373 292.112C699.66 291.298 691.519 292.904 687.788 293.808C688.928 294.785 692.831 299.876 689.484 301.035C698.642 300.8 712.096 301.27 711.531 299.574C711.192 298.557 705.765 293.13 702.373 292.112Z" fill="#F8D0C7"/>
<path d="M666.759 304.323H645.864C645.864 301.513 648.142 299.235 650.952 299.235H807.859L801.754 304.323H749.859H666.759Z" fill="#DADADA"/>
<path d="M594.513 179.164C591.799 174.416 594.174 165.258 595.53 162.205C596.583 159.835 598.454 153.786 599.239 148.977C600.603 152.256 603.196 160.102 602.653 165.258C602.01 171.363 604.156 172.939 604.688 173.737C605.367 174.755 608.08 176.79 606.045 178.486C604.01 180.182 603.671 181.878 604.01 184.93C604.349 187.983 604.699 197.141 598.08 198.498C599.755 191.911 597.094 183.681 594.513 179.164Z" fill="#F8D0C7"/>
<path fill-rule="evenodd" clip-rule="evenodd" d="M563.986 353.165L540.243 445.762H544.653L558.22 405.06H575.083L573.144 445.762H577.554L582.623 405.06H610.473L615.542 445.762H619.952L618.013 405.06H635.215L648.782 445.762H653.191L629.449 353.165H639.285C640.409 353.165 641.32 352.254 641.32 351.13V349.434C641.32 347.561 639.831 346.042 637.958 346.042L583.419 346.042L573.992 346.114L561.526 268.767C567.516 269.255 572.621 270.229 580.436 272.031C581.576 272.294 583.655 272.573 584.835 272.869C585.279 272.98 585.725 273.093 586.174 273.209C587.472 273.544 588.747 272.57 588.747 271.228V264.6C588.747 256.273 583.711 248.632 575.727 246.266C554.676 240.027 539.806 241.315 530.433 244.775C528.837 245.364 527.181 247.128 527.694 248.751L533.921 268.463C534.295 269.649 536.356 270.03 537.569 269.753C538.721 269.57 540.372 269.302 541.56 269.116C545.672 268.474 551.127 268.176 557.13 268.464L570.77 346.042L557.13 346.042H554.128C552.255 346.042 550.758 347.561 550.758 349.434V351.13C550.758 352.254 551.669 353.165 552.793 353.165H563.986ZM589.086 353.165H604.01L609.776 399.464H583.32L589.086 353.165ZM575.519 353.165L560.086 399.464H575.349L577.554 353.165H575.519ZM617.917 353.165L633.349 399.464H617.747L615.542 353.165H617.917Z" fill="#F4F4F4"/>
<path d="M537.569 269.753L557.13 346.042L560.157 346.042L541.56 269.116L537.569 269.753Z" fill="#F4F4F4"/>
<path d="M583.419 346.042L586.712 346.042L584.835 272.869L580.436 272.031L583.419 346.042Z" fill="#F4F4F4"/>
<path d="M589.086 353.165H577.554L575.349 399.463H583.32L589.086 353.165Z" fill="#DADADA"/>
<path fill-rule="evenodd" clip-rule="evenodd" d="M617.917 353.165L633.349 399.463L635.215 405.06L648.782 445.762H653.192L629.449 353.165H617.917ZM573.144 445.762L575.083 405.06H582.623L577.554 445.762H573.144Z" fill="#DADADA"/>
<path d="M967.425 104.205C967.425 102.811 966.295 101.68 964.901 101.68C963.507 101.68 962.377 102.811 962.377 104.205H967.425ZM962.377 445.423C962.377 446.817 963.507 447.947 964.901 447.947C966.295 447.947 967.425 446.817 967.425 445.423H962.377ZM995.435 97.5094C994.399 98.4419 994.315 100.038 995.247 101.074C996.18 102.11 997.776 102.194 998.812 101.262L995.435 97.5094ZM1010.89 109.059L1008.37 109.059L1010.89 109.059ZM974.066 140.245L976.305 141.41L974.066 140.245ZM988.09 164.054L988.372 166.562L988.385 166.561L988.398 166.559L988.09 164.054ZM999.545 158.098C999.938 156.761 999.173 155.358 997.836 154.964C996.498 154.571 995.095 155.336 994.702 156.674L999.545 158.098ZM930.748 101.262C931.784 102.194 933.38 102.11 934.312 101.074C935.245 100.038 935.161 98.4419 934.125 97.5094L930.748 101.262ZM918.668 109.059L921.192 109.059L918.668 109.059ZM955.494 140.245L953.255 141.41L955.494 140.245ZM941.47 164.054L941.162 166.559L941.175 166.561L941.187 166.562L941.47 164.054ZM934.858 156.674C934.464 155.336 933.061 154.571 931.724 154.964C930.387 155.358 929.621 156.761 930.015 158.098L934.858 156.674ZM923.615 444.341C923.017 445.6 923.553 447.106 924.813 447.703C926.072 448.301 927.578 447.765 928.175 446.505L923.615 444.341ZM1001.63 446.505C1002.22 447.765 1003.73 448.301 1004.99 447.703C1006.25 447.106 1006.79 445.6 1006.19 444.341L1001.63 446.505ZM998.812 101.262C999.144 100.963 999.855 100.617 1000.92 100.525C1001.95 100.437 1003.13 100.608 1004.23 101.11C1006.27 102.041 1008.37 104.271 1008.37 109.059L1013.42 109.059C1013.42 102.478 1010.33 98.3442 1006.33 96.5181C1004.41 95.6414 1002.36 95.3353 1000.49 95.4955C998.657 95.6528 996.799 96.2818 995.435 97.5094L998.812 101.262ZM1008.37 109.059C1008.37 111.424 1007.12 113.576 1004.5 115.822C1001.86 118.093 998.177 120.151 993.997 122.349C989.917 124.493 985.381 126.761 981.456 129.358C977.534 131.953 973.914 135.065 971.826 139.08L976.305 141.41C977.807 138.521 980.585 135.987 984.241 133.568C987.895 131.152 992.117 129.04 996.346 126.817C1000.47 124.646 1004.65 122.348 1007.79 119.652C1010.96 116.931 1013.42 113.505 1013.42 109.059L1008.37 109.059ZM988.398 166.559C989.92 166.372 992.18 165.762 994.298 164.511C996.432 163.25 998.63 161.21 999.545 158.098L994.702 156.674C994.26 158.175 993.164 159.318 991.732 160.164C990.284 161.018 988.705 161.435 987.782 161.549L988.398 166.559ZM934.125 97.5094C932.761 96.2818 930.903 95.6528 929.07 95.4955C927.203 95.3353 925.151 95.6414 923.231 96.5181C919.234 98.3442 916.144 102.478 916.144 109.059L921.192 109.059C921.192 104.271 923.29 102.041 925.329 101.11C926.428 100.608 927.606 100.437 928.638 100.525C929.705 100.617 930.416 100.963 930.748 101.262L934.125 97.5094ZM916.144 109.059C916.144 113.505 918.6 116.931 921.768 119.652C924.907 122.348 929.085 124.646 933.214 126.817C937.443 129.04 941.665 131.152 945.318 133.568C948.974 135.987 951.753 138.521 953.255 141.41L957.734 139.08C955.645 135.065 952.026 131.953 948.104 129.358C944.179 126.761 939.643 124.493 935.563 122.349C931.383 120.151 927.701 118.093 925.057 115.822C922.441 113.576 921.192 111.424 921.192 109.059L916.144 109.059ZM941.778 161.549C940.855 161.435 939.276 161.018 937.828 160.164C936.396 159.318 935.299 158.175 934.858 156.674L930.015 158.098C930.93 161.21 933.127 163.25 935.261 164.511C937.38 165.762 939.64 166.372 941.162 166.559L941.778 161.549ZM953.255 141.41C954.765 144.314 955.452 147.016 955.538 149.406L960.583 149.226C960.467 145.998 959.547 142.567 957.734 139.08L953.255 141.41ZM955.538 149.406C955.679 153.348 954.194 156.561 951.783 158.693C949.361 160.833 945.857 162.008 941.753 161.546L941.187 166.562C946.586 167.171 951.544 165.64 955.126 162.475C958.717 159.301 960.775 154.61 960.583 149.226L955.538 149.406ZM971.826 139.08C970.013 142.567 969.092 145.998 968.977 149.226L974.022 149.406C974.107 147.016 974.794 144.314 976.305 141.41L971.826 139.08ZM968.977 149.226C968.784 154.61 970.843 159.301 974.434 162.475C978.015 165.64 982.973 167.171 988.372 166.562L987.807 161.546C983.702 162.008 980.199 160.833 977.777 158.693C975.366 156.561 973.881 153.348 974.022 149.406L968.977 149.226ZM958.06 151.84H971.499V146.792H958.06V151.84ZM962.377 104.205V386.405H967.425V104.205H962.377ZM962.377 386.405V445.423H967.425V386.405H962.377ZM964.901 383.881C960.963 383.881 954.817 384.498 949.184 387.38C943.436 390.32 938.292 395.598 936.64 404.605L941.606 405.515C942.939 398.242 946.953 394.192 951.483 391.874C956.127 389.499 961.377 388.929 964.901 388.929V383.881ZM936.64 404.605C933.71 420.591 926.727 437.783 923.615 444.341L928.175 446.505C931.394 439.722 938.567 422.091 941.606 405.515L936.64 404.605ZM964.901 388.929C968.425 388.929 973.675 389.499 978.319 391.874C982.849 394.192 986.863 398.242 988.196 405.515L993.162 404.605C991.51 395.598 986.366 390.32 980.618 387.38C974.985 384.498 968.839 383.881 964.901 383.881V388.929ZM988.196 405.515C991.235 422.091 998.408 439.722 1001.63 446.505L1006.19 444.341C1003.08 437.783 996.092 420.591 993.162 404.605L988.196 405.515Z" fill="#F4F4F4"/>
<circle cx="964.901" cy="110.31" r="8.81877" fill="#F4F4F4"/>
<path d="M952.344 348.009L965.558 350.218L978.773 352.426L949.347 447.236L952.344 348.009Z" fill="#9E4040"/>
<path d="M965.558 350.218L968.577 332.152C971.037 317.432 952.469 314.33 950.01 329.05" stroke="#9E4040" stroke-width="3.02888" stroke-linecap="round"/>
<path fill-rule="evenodd" clip-rule="evenodd" d="M978.773 352.426L965.558 350.218L949.347 447.236L978.773 352.426Z" fill="#C03304"/>
<path d="M986.661 156.653C988.018 149.055 995.367 148.513 998.872 149.191C1000.23 149.53 1003.15 151.023 1003.96 154.279C1004.3 155.656 1006.04 164.832 1007.92 179.065C1008.91 179.17 1009.73 179.993 1010.06 180.735C1013.46 188.197 1017.53 209.227 1018.21 214.314C1019.03 220.514 1017.19 289.952 1016.85 293.344C1016.68 295.066 1014.06 297.4 1011.16 299.325C1011.14 299.592 1011.11 299.86 1011.08 300.128C1010.97 308.607 1010.4 327.127 1009.05 333.368C1007.35 341.169 991.07 351.684 988.018 353.379C984.965 355.075 984.287 344.561 983.948 329.976C983.608 315.391 984.965 166.15 986.661 156.653Z" fill="#F25C05"/>
<path d="M1005.31 180.617C1007.21 177.632 1009.45 179.26 1010.06 180.617C1013.45 188.079 1017.52 209.108 1018.2 214.196C1019.03 220.395 1017.19 289.834 1016.85 293.225C1016.51 296.617 1006.67 302.383 1003.96 302.723C1001.24 303.062 1000.57 301.705 999.887 299.331C999.208 296.956 998.869 206.734 999.208 198.932C999.547 191.131 1002.94 184.348 1005.31 180.617Z" fill="#F25C05"/>
<path d="M1007.88 178.942C1007.07 178.873 1006.16 179.287 1005.31 180.617C1002.94 184.348 999.547 191.131 999.208 198.933C998.869 206.734 999.208 296.957 999.887 299.331C1000.57 301.705 1001.24 303.062 1003.96 302.723C1005.27 302.559 1008.24 301.127 1011.01 299.308" stroke="#C03304" stroke-width="2.01926"/>
<path fill-rule="evenodd" clip-rule="evenodd" d="M338.225 378.943C341.164 376.003 346.704 366.054 345.348 349.773C343.652 329.422 343.991 325.352 348.061 313.819C352.131 302.287 354.506 290.416 345.348 288.381C340.712 290.981 331.305 300.93 330.763 319.925C330.667 323.287 330.598 326.377 330.534 329.24C330.147 346.597 329.946 355.62 324.997 366.393C322.407 372.03 320.907 375.902 320.09 378.385C319.452 380.325 319.231 381.417 319.231 381.84C321.573 381.476 323.897 380.959 326.154 380.457C330.563 379.476 334.712 378.552 338.225 378.943Z" fill="#32A64F"/>
<path d="M345.348 288.381C336.19 286.346 329.406 293.468 327.371 297.199L327.341 297.255C325.263 301.064 317.88 314.596 319.231 334.51C320.452 352.523 322.223 367.537 320.09 378.385C320.907 375.902 322.407 372.03 324.997 366.393C329.946 355.62 330.147 346.597 330.534 329.24C330.598 326.377 330.667 323.287 330.763 319.925C331.305 300.93 340.712 290.981 345.348 288.381Z" fill="#1B8339"/>
<path fill-rule="evenodd" clip-rule="evenodd" d="M320.09 378.385C319.854 379.589 319.569 380.741 319.231 381.84C319.231 381.417 319.452 380.325 320.09 378.385Z" fill="#1B8339"/>
<path fill-rule="evenodd" clip-rule="evenodd" d="M286.669 379.383C287.412 379.151 288.103 379.009 288.704 378.943C292.084 378.567 295.718 379.408 299.771 380.346C300.169 380.439 300.571 380.532 300.977 380.625C300.998 380.63 301.018 380.634 301.039 380.639L300.977 380.625C296.689 379.562 290.054 360.882 288.704 343.328C287.619 329.218 274.232 316.872 267.675 312.463C262.006 318.568 265.3 328.404 267.675 332.135C269.278 334.654 271.066 336.605 272.805 338.502C276.921 342.991 280.765 347.184 281.242 357.913C281.604 366.05 284.747 375.618 286.669 379.383Z" fill="#32A64F"/>
<path d="M284.634 314.837C279.207 308.732 272.084 307.714 267.675 312.463C274.232 316.872 287.619 329.218 288.704 343.328C290.054 360.882 296.689 379.562 300.977 380.625L300.998 380.63L301.039 380.639C304.782 381.494 308.882 382.335 313.464 382.335C314.254 382.335 315.046 382.301 315.839 382.241C309.394 380.792 307.698 363.34 307.359 360.966C306.39 354.182 298.319 342.164 294.809 337.902C290.061 332.135 290.061 320.942 284.634 314.837Z" fill="#1B8339"/>
<path fill-rule="evenodd" clip-rule="evenodd" d="M300.998 380.63C300.991 380.628 300.984 380.626 300.977 380.625L301.039 380.639C301.025 380.636 301.012 380.633 300.998 380.63Z" fill="#1B8339"/>
<path fill-rule="evenodd" clip-rule="evenodd" d="M316.856 383.112C316.969 377.973 315.093 365.998 306.681 359.214C305.953 358.627 305.227 358.048 304.505 357.473C294.801 349.739 285.841 341.214 284.973 325.296C284.631 319.017 284.749 314.083 284.85 309.873C285.05 301.575 284.85 295.407 281.581 288.664C276.561 278.311 272.412 264.475 278.529 257.357C285.199 261.235 298.676 273.536 299.219 291.717C299.263 293.193 299.303 294.636 299.342 296.047C299.902 316.356 300.285 330.261 310.751 348.021C319.705 363.216 321.026 375.608 320.568 379.904C320.254 380.84 319.922 381.788 319.57 382.748C318.667 382.894 317.762 383.019 316.856 383.112Z" fill="#32A64F"/>
<path d="M301.593 265.939C298.54 258.477 288.704 249.319 280.225 255.763C279.588 256.247 279.025 256.78 278.529 257.357C285.199 261.235 298.676 273.536 299.219 291.717C299.263 293.193 299.303 294.636 299.342 296.047C299.902 316.356 300.285 330.261 310.751 348.021C319.705 363.216 321.026 375.608 320.568 379.904C329.631 352.861 323.085 335.866 316.856 327.67C310.412 319.19 306.681 306.98 306.681 297.144C306.681 287.307 304.646 273.401 301.593 265.939Z" fill="#1B8339"/>
<path d="M276.154 395.224C276.426 383.284 284.634 379.395 288.704 378.943C290.645 378.727 292.67 378.913 294.809 379.287C298.301 379.899 302.099 381.014 306.342 381.713C308.585 382.082 310.952 382.335 313.465 382.335C322.283 382.335 331.441 378.189 338.225 378.943C339.947 379.134 342.41 379.941 344.7 381.713C347.821 384.128 350.618 388.337 350.775 395.224C350.988 404.611 347.175 422.186 341.278 433.933C339.239 437.994 336.951 441.359 334.494 443.448C332.76 444.923 330.941 445.762 329.067 445.762H315.839H313.465H297.862C296.826 445.762 295.807 445.506 294.809 445.027C288.257 441.882 282.648 429.15 279.336 416.592C277.213 408.54 276.033 400.559 276.154 395.224Z" fill="#F4F4F4"/>
<path fill-rule="evenodd" clip-rule="evenodd" d="M288.704 378.943C284.634 379.395 276.426 383.284 276.154 395.224C276.033 400.559 277.213 408.54 279.336 416.592C279.982 390.272 289.921 380.755 294.809 379.287C292.67 378.913 290.645 378.727 288.704 378.943ZM306.342 381.713C310.977 384.634 317.467 395.699 306.342 416.592C296.845 433.212 294.809 440.222 294.809 445.027C295.807 445.506 296.826 445.762 297.862 445.762H313.465H315.839C312.108 445.762 311.09 437.282 313.465 430.16C314.191 427.98 315.426 425.545 316.8 422.837C319.915 416.698 323.744 409.152 323.979 399.972C324.251 389.39 317.082 383.805 313.465 382.335C310.952 382.335 308.585 382.082 306.342 381.713ZM341.278 433.933C339.239 437.994 336.951 441.359 334.494 443.448C322.622 432.655 332.12 409.469 341.278 398.276C348.604 389.322 346.612 383.503 344.7 381.713C347.821 384.128 350.618 388.337 350.775 395.224C350.604 399.972 349.101 402.007 342.634 409.469C338.225 414.557 334.833 427.192 341.278 433.933Z" fill="#DADADA"/>
<path d="M3.5 446.674H1077" stroke="#DADADA" stroke-width="5.04814" stroke-linecap="round"/>
<path d="M533.474 262.715L533.113 265.908C534.298 265.405 536.117 264.895 538.566 264.494C535.497 264.972 534.532 264.943 533.927 263.859C533.761 263.561 533.622 263.184 533.474 262.715Z" fill="#DADADA"/>
<path fill-rule="evenodd" clip-rule="evenodd" d="M541.56 269.117C545.672 268.474 551.127 268.176 557.13 268.464C558.276 268.519 560.307 268.668 561.526 268.767C567.516 269.255 572.621 270.229 580.436 272.031C580.884 272.134 581.475 272.24 582.101 272.348L584.835 272.869C585.278 272.98 585.725 273.093 586.173 273.209C587.472 273.544 588.747 272.57 588.747 271.229C588.641 270.031 586.234 269.103 584.733 268.699C584.599 268.665 584.465 268.631 584.331 268.598C569.554 264.903 557.828 263.713 549.211 263.726C549.143 263.727 549.075 263.727 549.006 263.726C544.84 263.742 541.409 264.04 538.72 264.469C538.669 264.478 538.617 264.486 538.566 264.494C536.117 264.895 534.298 265.405 533.113 265.908L533.921 268.463C534.044 268.854 534.35 269.157 534.749 269.379C535.524 269.933 536.542 269.988 537.569 269.753L541.56 269.117Z" fill="#DADADA"/>
<path fill-rule="evenodd" clip-rule="evenodd" d="M528.686 247.208C528.686 247.664 529.066 248.792 529.142 249.032L530.173 252.225L533.927 263.859L535.268 268.014C535.344 268.254 534.596 268.869 534.355 268.945C534.115 269.021 533.779 268.429 533.703 268.188L527.259 248.888C526.862 247.664 528.686 246.752 528.686 247.208Z" fill="#DADADA"/>
<path d="M533.927 263.859C534.532 264.943 535.497 264.972 538.566 264.494C538.617 264.486 538.669 264.478 538.72 264.469C541.409 264.04 544.84 263.742 549.006 263.726C542.076 263.685 531.921 257.644 530.173 252.225L533.927 263.859Z" fill="#DADADA"/>
</svg>
