<svg width="274" height="147" viewBox="0 0 274 147" fill="none" xmlns="http://www.w3.org/2000/svg">
<path d="M240.526 59.773C259.58 79.9929 259.58 119.87 224.065 144.972H13.0948C14.2042 139.525 17.2357 123.293 30.116 112.988C43.917 101.948 55.1173 102.003 64.6184 99.1874C77.0393 95.5072 80.268 88.9604 86.2399 87.2266C105.21 81.7192 90.3802 68.3653 107.861 57.7845C119.436 50.7787 131.783 57.7845 151.564 34.3229C158.853 25.6787 175.026 21.4421 183.421 32.0488C187.374 37.0445 190.613 43.1333 197.494 46.9412C202.637 49.7869 207.375 49.3443 212.347 48.8798C220.282 48.1384 228.812 47.3416 240.526 59.773Z" fill="#FDC32D"/>
<rect x="23" y="6" width="124.381" height="67.8032" rx="0.453625" fill="#F4F4F4"/>
<circle cx="30.2967" cy="13.0722" r="2.13288" fill="#F25C05"/>
<circle cx="36.8077" cy="13.0722" r="2.13288" fill="#FDC32D"/>
<circle cx="43.3184" cy="13.0722" r="2.13288" fill="#32A64F"/>
<rect x="35.1238" y="22.165" width="33.9016" height="11.8992" rx="0.453625" fill="white"/>
<path d="M35.2361 38.6667H66.219" stroke="#32A64F" stroke-width="1.36087" stroke-linecap="round"/>
<path d="M45.6115 56.5906L54.7478 44.4538" stroke="#FDC32D" stroke-width="1.36087" stroke-linecap="round"/>
<path d="M45.5638 49.7802C40.0741 49.7802 35.5958 54.1105 35.3583 59.5417C35.3473 59.792 35.5515 59.9956 35.802 59.9956H55.3255C55.5761 59.9956 55.7802 59.792 55.7693 59.5417C55.5318 54.1105 51.0535 49.7802 45.5638 49.7802Z" fill="#F25C05"/>
<rect x="100.233" y="17.8992" width="33.4526" height="47.597" fill="white"/>
<rect x="98.6611" y="16.3276" width="3.1432" height="3.1432" rx="0.453625" fill="#F25C05"/>
<rect x="132.114" y="16.3276" width="3.1432" height="3.1432" rx="0.453625" fill="#F25C05"/>
<rect x="98" y="64" width="3.1432" height="3.1432" rx="0.453625" fill="#F25C05"/>
<path d="M126.669 33.8237L127.827 36.2277L126.201 37.6083L124.016 36.0763C124.178 34.8789 123.369 32.944 122.945 32.1263C123.683 32.6776 125.461 33.7889 126.669 33.8237Z" fill="#FDC32D"/>
<path fill-rule="evenodd" clip-rule="evenodd" d="M123.2 32.6605L122.945 32.1263L123.43 32.4644L125.458 34.8523L125.227 35.0477L123.2 32.6605Z" fill="white"/>
<path d="M125.594 34.7313C125.714 34.8731 125.697 35.0856 125.555 35.206C125.413 35.3264 125.201 35.3091 125.08 35.1673C124.96 35.0255 124.977 34.813 125.119 34.6926C125.261 34.5722 125.473 34.5895 125.594 34.7313Z" fill="white"/>
<path d="M122.728 32.2406C121.942 39.7618 108.246 48.8546 96.0104 48.8546H111.39" stroke="#418EF2" stroke-width="0.90725" stroke-linecap="round"/>
<circle cx="95.8981" cy="48.8545" r="0.898056" fill="#2B69CD"/>
<rect x="110.491" y="48.181" width="1.34708" height="1.34708" fill="#2B69CD"/>
<path d="M213.731 52.1514V144.972H171.948H116.143V125.132V105.292V86.5036H107.899V84.4004H118.246L150.495 52.1514H206.3H213.731Z" fill="#F4F4F4"/>
<path fill-rule="evenodd" clip-rule="evenodd" d="M171.948 86.5035H150.496H116.144H107.711V84.4003H118.247L150.496 52.1514H206.3L174.472 84.4003L171.948 86.5035Z" fill="#DADADA"/>
<path d="M116.144 144.972V125.132M116.144 86.5036V105.292M171.948 105.292H116.144M171.948 125.132H116.144M116.144 125.132V105.292" stroke="#DADADA" stroke-width="1.36087"/>
<path d="M101.982 84.4004H174.472L201.753 56.759L198.197 37.5075L192.561 34.1566L85.9463 84.4004H101.982Z" fill="white" fill-opacity="0.43"/>
<path d="M147.551 84.4003H115.091C114.054 84.4003 113.398 83.2855 113.902 82.3785L122.829 66.3095C123.549 65.0134 124.915 64.2096 126.398 64.2096H156.455C157.493 64.2096 158.149 65.3243 157.645 66.2314L147.551 84.4003Z" fill="#0B1940"/>
<path d="M155.973 66.6963L147.048 82.5623C146.807 82.9909 146.354 83.2561 145.862 83.2561H117.018C115.977 83.2561 115.322 82.1352 115.832 81.228L123.596 67.4254C124.319 66.1398 125.679 65.3442 127.154 65.3442H155.182C155.876 65.3442 156.313 66.0915 155.973 66.6963Z" fill="#0E2565"/>
<path fill-rule="evenodd" clip-rule="evenodd" d="M148.626 65.3442L123.172 83.2561H145.997C146.405 83.2561 146.782 83.0356 146.983 82.6794L156.101 66.4681C156.384 65.9654 156.02 65.3442 155.444 65.3442H148.626Z" fill="#0B1940"/>
<path d="M198.281 30.9508L198.197 37.5074L192.561 34.1565L198.281 30.9508Z" fill="#DADADA"/>
<path d="M198.281 30.9508L198.961 30.9595C198.964 30.7164 198.838 30.4902 198.629 30.3659C198.42 30.2417 198.16 30.2384 197.948 30.3572L198.281 30.9508ZM198.197 37.5074L197.849 38.0923C198.058 38.2165 198.318 38.2198 198.53 38.101C198.742 37.9821 198.874 37.7592 198.877 37.5161L198.197 37.5074ZM192.561 34.1565L192.228 33.5629C192.016 33.6817 191.884 33.9047 191.88 34.1478C191.877 34.3908 192.004 34.6171 192.213 34.7413L192.561 34.1565ZM214.412 28.5955C214.412 26.8449 213.836 24.8542 212.462 23.2914C211.073 21.7109 208.917 20.624 205.88 20.624V21.9849C208.564 21.9849 210.334 22.9311 211.44 24.1899C212.562 25.4664 213.051 27.1213 213.051 28.5955H214.412ZM205.88 20.624C202.811 20.624 200.696 21.8446 199.382 23.8194C198.098 25.7494 197.628 28.3237 197.628 30.9791H198.989C198.989 28.4467 199.444 26.1837 200.515 24.5733C201.557 23.0077 203.229 21.9849 205.88 21.9849V20.624ZM197.601 30.9421L197.517 37.4987L198.877 37.5161L198.961 30.9595L197.601 30.9421ZM198.545 36.9225L192.909 33.5716L192.213 34.7413L197.849 38.0923L198.545 36.9225ZM192.893 34.75L198.614 31.5444L197.948 30.3572L192.228 33.5629L192.893 34.75ZM214.412 145.253V28.5955H213.051V145.253H214.412Z" fill="#DADADA"/>
<path d="M60.1985 13.032C57.1138 18.5003 60.993 22.3328 63.2832 23.2675C62.956 24.7631 62.3017 28.2311 62.3017 30.138C62.3017 32.5216 62.3017 34.3443 61.6006 37.0084C60.8996 39.6724 57.9551 42.7571 56.2725 46.4027C54.59 50.0482 56.4128 53.2731 57.9551 54.8154C59.4974 56.3578 65.3864 57.7599 69.4526 54.2546C73.5187 50.7493 75.7621 49.908 77.5849 49.3471C79.4077 48.7863 83.3336 47.945 86.2781 45.281C89.2226 42.6169 87.7203 37.2888 86.2781 34.765C85.1564 32.802 86.1379 29.0163 86.6988 27.7543C87.2596 26.4924 88.3813 22.7067 88.3813 20.7437C88.3813 18.7807 88.2411 17.659 82.913 15.4156C77.5849 13.1722 72.8177 14.5743 71.1351 15.4156C70.0134 10.3679 62.5952 8.78325 60.1985 13.032Z" fill="black"/>
<path d="M116.284 129.829C116.471 130.203 117.237 131.288 119.929 129.829C123.294 128.007 127.6 125.623 128.023 126.324C128.41 127.025 129.435 128.435 129.771 128.884C129.584 129.351 128.651 130.671 127.08 131.792C126.631 131.007 126.239 130.241 126.099 129.956C125.513 130.234 124.931 130.534 124.416 130.811C122.593 131.792 120.07 133.755 117.826 133.475C116.144 133.265 115.816 130.671 116.284 129.829Z" fill="#197433"/>
<path fill-rule="evenodd" clip-rule="evenodd" d="M129.771 128.884C129.268 128.582 127.587 129.251 126.099 129.956C126.239 130.241 126.631 131.007 127.08 131.792C128.651 130.671 129.584 129.351 129.771 128.884Z" fill="#0B3617"/>
<path d="M97.0745 83.9797C93.9899 82.5776 90.3443 83.4189 87.8205 83.9797C85.4096 84.5155 74.1705 93.4956 68.8917 87.3317C70.0134 92.8044 74.1918 103.75 81.9315 103.75L104.366 103.75C104.506 103.75 106.132 104.255 107.03 104.591C108.151 105.012 117.405 108.237 117.826 108.657C118.247 109.078 129.324 129.128 129.884 129.128C130.445 129.128 132.408 129.549 137.736 125.343C138.718 124.501 139.839 123.94 140.26 124.081C139.699 122.819 128.622 97.7206 126.94 96.1782C125.257 94.6359 108.993 86.9513 102.403 85.2416C101.432 85.363 99.4887 85.1969 97.355 84.1147L97.0745 83.9797Z" fill="#32A64F"/>
<path d="M139.839 127.082C139.223 127.401 138.551 127.914 137.876 128.708C136.406 130.437 134.403 131.367 132.951 131.792C133.518 132.961 134.848 135.718 135.633 137.401C136.643 138.859 141.008 137.074 143.064 135.999L140.541 129.128C140.316 128.455 139.98 127.484 139.839 127.082Z" fill="#F8D0C7"/>
<path d="M122.032 137.681C124.164 138.915 127.594 136.606 129.043 135.298C129.23 135.158 129.772 134.961 130.445 135.298C131.287 135.718 137.596 138.803 140.12 140.345C142.139 141.579 141.989 143.944 141.662 144.972H119.929C119.481 141.495 121.144 138.663 122.032 137.681Z" fill="black" stroke="black" stroke-width="0.337341"/>
<path d="M135.633 137.401C136.643 138.859 141.008 137.074 143.064 135.999C143.345 135.852 144.42 135.718 144.607 135.999C145.167 136.84 149.795 139.224 152.879 140.205C155.347 140.99 156.151 143.71 156.244 144.972H134.371C133.137 142.056 134.698 138.71 135.633 137.401Z" fill="black" stroke="black" stroke-width="0.337341"/>
<path d="M104.366 103.75H81.9315C88.1944 105.526 100.72 108.657 107.731 116.649C113.161 122.84 115.396 128.1 116.284 129.829C116.471 130.203 117.237 131.288 119.929 129.829C123.294 128.007 127.6 125.623 128.023 126.324C124.708 120.792 118.148 108.979 117.826 108.657C117.405 108.237 108.151 105.012 107.03 104.591C106.132 104.255 104.506 103.75 104.366 103.75Z" fill="#1B8339"/>
<path d="M129.884 129.128C130.445 129.128 132.408 129.549 137.736 125.343C138.718 124.501 139.839 123.94 140.26 124.081C141.494 124.081 142.176 125.857 142.363 126.745C142.317 127.306 141.887 128.567 140.541 129.128C140.316 128.455 139.98 127.484 139.839 127.082C139.223 127.401 138.551 127.914 137.876 128.708C135.493 131.512 131.707 132.213 131.146 132.073C130.585 131.933 130.165 131.652 129.604 130.671C129.155 129.886 129.604 129.315 129.884 129.128Z" fill="#1B8339"/>
<path fill-rule="evenodd" clip-rule="evenodd" d="M140.541 129.128C141.887 128.567 142.317 127.306 142.363 126.745C141.91 126.564 140.966 126.499 139.839 127.082C139.98 127.484 140.316 128.455 140.541 129.128Z" fill="#125B27"/>
<path d="M126.099 129.956C125.513 130.234 124.931 130.534 124.416 130.811C123.039 131.552 121.262 132.854 119.509 133.325C119.976 134.123 121.135 136.111 122.032 137.681C124.164 138.915 127.594 136.606 129.043 135.298L127.08 131.792C126.631 131.007 126.239 130.241 126.099 129.956Z" fill="#F8D0C7"/>
<path d="M69.4526 54.2546C73.5187 50.7492 75.7622 49.908 77.5849 49.3471C79.2002 48.8501 82.467 48.1329 85.2389 46.1222C87.0809 46.4494 91.1575 47.6645 92.7279 49.9079C94.6909 52.7122 100.58 66.8737 101.842 69.2573C103.104 71.6409 104.225 74.4452 108.151 75.8473C112.077 77.2495 123.58 81.8522 124.837 82.1569C125.932 82.4227 127.361 85.2416 124.837 85.2416H102.403C102.241 85.2618 102.053 85.274 101.842 85.2754C101.294 85.2831 100.734 85.2162 100.194 85.1063C99.6152 84.9917 98.9762 84.8115 98.3044 84.5438C97.7808 84.3407 97.3508 84.1338 97.0745 83.9797C94.0343 82.5977 90.4492 83.3951 87.9302 83.9553L87.8205 83.9797C85.2966 84.5405 73.0981 94.3554 68.1907 86.3633C62.2456 76.4923 61.7876 62.2724 62.3017 56.3963C64.5767 56.6012 67.2758 56.1311 69.4526 54.2546Z" fill="#F8D0C7"/>
<path d="M77.5849 49.3471C75.7622 49.908 73.5187 50.7492 69.4526 54.2546C67.2758 56.1311 64.5767 56.6012 62.3017 56.3963C61.7876 62.2724 62.2456 76.4923 68.1907 86.3633C72.022 92.6029 80.2974 87.9888 84.9434 85.3983C86.2484 84.6706 87.267 84.1027 87.8205 83.9797L87.9302 83.9553C90.4492 83.3951 94.0343 82.5977 97.0745 83.9797C97.3508 84.1338 97.7809 84.3407 98.3046 84.5439C96.8809 83.9767 95.3097 83.0166 93.8496 81.4558C92.6771 80.2024 91.2264 78.4863 89.7432 76.6594C93.1659 73.1158 100.377 66.6744 101.842 69.2573C101.375 68.3755 100.275 65.8814 98.9742 62.9468C96.7597 57.9495 93.9646 51.6747 92.7279 49.9079C91.1575 47.6645 87.0809 46.4494 85.2389 46.1222C82.8784 47.8344 80.159 48.6087 78.4063 49.1077C78.1008 49.1947 77.8247 49.2733 77.5849 49.3471Z" fill="#418EF2"/>
<path fill-rule="evenodd" clip-rule="evenodd" d="M100.495 66.3696C100.495 66.3696 100.495 66.3696 100.495 66.3696L100.495 66.3689C99.0304 63.7859 91.1985 70.6552 87.7757 74.1987L87.776 74.1991C87.842 74.2828 87.9082 74.3666 87.9745 74.4504C88.5589 75.1895 89.1536 75.9332 89.7432 76.6594C93.1659 73.1158 100.377 66.6744 101.842 69.2573C101.626 68.8502 101.276 68.0994 100.833 67.1202C100.725 66.8829 100.613 66.6321 100.495 66.3696ZM100.194 85.1063C99.6152 84.9917 98.9763 84.8115 98.3046 84.5439C98.8544 84.7573 99.5075 84.9665 100.194 85.1063ZM101.842 85.2754C101.294 85.2832 100.734 85.2162 100.194 85.1063C100.827 85.2316 101.388 85.2784 101.842 85.2754ZM102.403 85.2416L101.842 85.2754C102.053 85.274 102.241 85.2618 102.403 85.2416Z" fill="#2B69CD"/>
<path d="M83.1316 67.5177C84.5963 69.4905 86.9808 73.3409 89.9618 76.3219" stroke="#2B69CD" stroke-width="0.90725"/>
<path d="M130.866 81.4559C129.744 81.1194 126.379 81.7831 124.837 82.157C125.308 82.5607 126.921 84.6655 125.538 85.1446C129.323 85.0474 134.885 85.2417 134.652 84.5406C134.511 84.12 132.268 81.8766 130.866 81.4559Z" fill="#F8D0C7"/>
<path d="M116.143 86.5035H107.506C107.506 85.342 108.448 84.4003 109.609 84.4003H174.472L171.948 86.5035H150.496H116.143Z" fill="#DADADA"/>
<path d="M86.2782 34.765C85.1564 32.802 86.1379 29.0162 86.6988 27.7543C87.1342 26.7747 87.9076 24.2741 88.2318 22.286C88.7958 23.6414 89.8676 26.885 89.6433 29.0162C89.3776 31.5401 90.2646 32.1916 90.4845 32.5216C90.765 32.9422 91.8867 33.7835 91.0454 34.4845C90.2041 35.1856 90.0639 35.8867 90.2041 37.1486C90.3443 38.4105 90.4891 42.1962 87.7527 42.7571C88.445 40.0344 87.3451 36.6322 86.2782 34.765Z" fill="#F8D0C7"/>
<path fill-rule="evenodd" clip-rule="evenodd" d="M73.659 106.694L63.8441 144.972H65.6668L71.2754 128.147H78.246L77.4447 144.972H79.2675L81.363 128.147H92.8759L94.9714 144.972H96.7941L95.9929 128.147H103.104L108.712 144.972H110.535L100.72 106.694H104.786C105.251 106.694 105.627 106.317 105.627 105.853V105.152C105.627 104.377 105.012 103.75 104.238 103.75L81.692 103.75L77.7952 103.78L72.6418 71.8053C75.1183 72.0073 77.2285 72.4095 80.4592 73.1546C80.9304 73.2633 81.7897 73.3786 82.2776 73.5009C82.4608 73.5468 82.6452 73.5936 82.8308 73.6415C83.3676 73.78 83.8945 73.3773 83.8945 72.8229V70.0828C83.8945 66.6407 81.8127 63.4818 78.5125 62.5038C69.8103 59.9249 63.6633 60.4572 59.7885 61.8875C59.1286 62.1311 58.4443 62.8602 58.6562 63.5309L61.2303 71.6798C61.3851 72.17 62.2372 72.3275 62.7383 72.2131C63.2145 72.1371 63.8973 72.0265 64.3883 71.9498C66.088 71.6843 68.3433 71.5612 70.8246 71.6801L76.4633 103.75L70.8246 103.75H69.5837C68.8093 103.75 68.1907 104.377 68.1907 105.152V105.853C68.1907 106.317 68.5673 106.694 69.032 106.694H73.659ZM84.0348 106.694H90.2041L92.5877 125.833H81.6511L84.0348 106.694ZM78.4262 106.694L72.0466 125.833H78.3561L79.2675 106.694H78.4262ZM95.9529 106.694L102.332 125.833H95.8828L94.9714 106.694H95.9529Z" fill="#F4F4F4"/>
<path d="M62.7383 72.2131L70.8246 103.75L72.0762 103.75L64.3883 71.9498L62.7383 72.2131Z" fill="#F4F4F4"/>
<path d="M81.692 103.75L83.0532 103.75L82.2776 73.5009L80.4592 73.1546L81.692 103.75Z" fill="#F4F4F4"/>
<path d="M84.0348 106.694H79.2676L78.3562 125.833H81.6512L84.0348 106.694Z" fill="#DADADA"/>
<path fill-rule="evenodd" clip-rule="evenodd" d="M95.9529 106.694L102.333 125.833L103.104 128.147L108.712 144.972H110.535L100.72 106.694H95.9529ZM77.4448 144.972L78.246 128.147H81.3631L79.2676 144.972H77.4448Z" fill="#DADADA"/>
<path d="M240.525 3.7779C240.525 3.15157 240.017 2.64383 239.391 2.64383C238.764 2.64383 238.257 3.15157 238.257 3.7779H240.525ZM238.257 144.832C238.257 145.458 238.764 145.966 239.391 145.966C240.017 145.966 240.525 145.458 240.525 144.832H238.257ZM251.952 0.942846C251.487 1.36183 251.449 2.07889 251.868 2.54443C252.287 3.00998 253.004 3.04773 253.47 2.62874L251.952 0.942846ZM258.403 5.78456L257.268 5.78456L258.403 5.78456ZM243.179 18.6764L244.185 19.1997L243.179 18.6764ZM248.976 28.5188L249.103 29.6458L249.115 29.6444L248.976 28.5188ZM253.799 26.0822C253.976 25.4813 253.632 24.851 253.031 24.6742C252.43 24.4975 251.8 24.8414 251.623 25.4422L253.799 26.0822ZM225.212 2.62874C225.677 3.04773 226.394 3.00998 226.813 2.54443C227.232 2.07889 227.194 1.36183 226.729 0.942846L225.212 2.62874ZM220.279 5.78456L221.413 5.78456L220.279 5.78456ZM235.502 18.6764L234.496 19.1997L235.502 18.6764ZM229.705 28.5188L229.566 29.6444L229.578 29.6457L229.705 28.5188ZM227.058 25.4422C226.882 24.8414 226.251 24.4975 225.65 24.6742C225.049 24.851 224.706 25.4813 224.882 26.0822L227.058 25.4422ZM222.242 144.346C221.973 144.912 222.214 145.588 222.78 145.857C223.346 146.125 224.022 145.884 224.291 145.318L222.242 144.346ZM254.491 145.318C254.759 145.884 255.436 146.125 256.001 145.857C256.567 145.588 256.808 144.912 256.54 144.346L254.491 145.318ZM253.47 2.62874C253.588 2.52192 253.861 2.38391 254.289 2.34724C254.701 2.31189 255.172 2.38025 255.611 2.58106C256.419 2.95003 257.268 3.83743 257.268 5.78456L259.537 5.78456C259.537 3.03188 258.241 1.28895 256.554 0.518012C255.746 0.148872 254.882 0.0198878 254.095 0.0874205C253.323 0.153624 252.535 0.418724 251.952 0.942846L253.47 2.62874ZM257.268 5.78456C257.268 6.72484 256.774 7.59154 255.702 8.51173C254.618 9.44283 253.105 10.2894 251.376 11.1982C249.692 12.0834 247.812 13.0237 246.184 14.1004C244.558 15.1761 243.047 16.4732 242.173 18.1531L244.185 19.1997C244.796 18.0259 245.929 16.9887 247.436 15.992C248.941 14.9962 250.681 14.1262 252.432 13.2058C254.138 12.3089 255.874 11.3546 257.18 10.2323C258.5 9.09909 259.537 7.65991 259.537 5.78456L257.268 5.78456ZM249.115 29.6444C249.755 29.5657 250.701 29.3097 251.589 28.7855C252.484 28.2572 253.412 27.3974 253.799 26.0822L251.623 25.4422C251.449 26.0339 251.015 26.4903 250.436 26.8324C249.85 27.1787 249.209 27.3476 248.838 27.3932L249.115 29.6444ZM226.729 0.942846C226.147 0.418724 225.358 0.153624 224.586 0.0874205C223.8 0.0198878 222.936 0.148872 222.127 0.518012C220.44 1.28895 219.145 3.03188 219.145 5.78456L221.413 5.78456C221.413 3.83743 222.262 2.95003 223.07 2.58106C223.51 2.38025 223.981 2.31189 224.392 2.34724C224.82 2.38391 225.093 2.52192 225.212 2.62874L226.729 0.942846ZM219.145 5.78456C219.145 7.65991 220.182 9.09909 221.501 10.2323C222.808 11.3546 224.544 12.3089 226.25 13.2058C228.001 14.1262 229.74 14.9962 231.245 15.992C232.752 16.9887 233.886 18.0259 234.496 19.1997L236.508 18.1531C235.635 16.4732 234.123 15.1761 232.497 14.1004C230.869 13.0237 228.989 12.0834 227.305 11.1982C225.576 10.2894 224.063 9.44283 222.979 8.51173C221.908 7.59154 221.413 6.72484 221.413 5.78456L219.145 5.78456ZM229.843 27.3932C229.472 27.3476 228.832 27.1787 228.245 26.8324C227.666 26.4903 227.232 26.0339 227.058 25.4422L224.882 26.0822C225.269 27.3974 226.197 28.2572 227.092 28.7855C227.98 29.3097 228.926 29.5657 229.566 29.6444L229.843 27.3932ZM234.496 19.1997C235.115 20.3899 235.395 21.4938 235.43 22.4667L237.696 22.3857C237.648 21.0364 237.263 19.605 236.508 18.1531L234.496 19.1997ZM235.43 22.4667C235.487 24.0702 234.883 25.3722 233.908 26.2345C232.928 27.1007 231.505 27.5804 229.832 27.3918L229.578 29.6457C231.833 29.8998 233.908 29.2608 235.41 27.9339C236.916 26.603 237.777 24.6374 237.696 22.3857L235.43 22.4667ZM242.173 18.1531C241.418 19.605 241.033 21.0364 240.985 22.3857L243.252 22.4667C243.286 21.4938 243.566 20.3899 244.185 19.1997L242.173 18.1531ZM240.985 22.3857C240.904 24.6374 241.766 26.603 243.271 27.9339C244.773 29.2608 246.848 29.8998 249.103 29.6457L248.849 27.3918C247.176 27.5804 245.754 27.1007 244.774 26.2345C243.798 25.3722 243.194 24.0702 243.252 22.4667L240.985 22.3857ZM236.563 23.5603H242.118V21.2921H236.563V23.5603ZM238.257 3.7779V120.435H240.525V3.7779H238.257ZM238.257 120.435V144.832H240.525V120.435H238.257ZM239.391 119.301C237.755 119.301 235.199 119.557 232.852 120.757C230.454 121.984 228.307 124.188 227.619 127.942L229.85 128.351C230.396 125.376 232.034 123.723 233.885 122.777C235.787 121.804 237.942 121.569 239.391 121.569V119.301ZM227.619 127.942C226.409 134.54 223.526 141.639 222.242 144.346L224.291 145.318C225.623 142.51 228.592 135.214 229.85 128.351L227.619 127.942ZM239.391 121.569C240.84 121.569 242.994 121.804 244.896 122.777C246.747 123.723 248.386 125.376 248.931 128.351L251.162 127.942C250.474 124.188 248.327 121.984 245.929 120.757C243.583 119.557 241.026 119.301 239.391 119.301V121.569ZM248.931 128.351C250.19 135.214 253.158 142.51 254.491 145.318L256.54 144.346C255.255 141.639 252.372 134.54 251.162 127.942L248.931 128.351Z" fill="#F4F4F4"/>
<circle cx="239.391" cy="6.30173" r="3.64554" fill="#F4F4F4"/>
<path d="M234.2 104.563L239.662 105.476L245.125 106.388L232.961 145.581L234.2 104.563Z" fill="#9E4040"/>
<path d="M239.662 105.476L240.91 98.0077C241.927 91.9227 234.252 90.6402 233.235 96.7252" stroke="#9E4040" stroke-width="1.36087" stroke-linecap="round"/>
<path fill-rule="evenodd" clip-rule="evenodd" d="M245.125 106.388L239.662 105.476L232.961 145.581L245.125 106.388Z" fill="#C03304"/>
<path d="M248.386 25.4593C248.947 22.3186 251.985 22.0942 253.434 22.3746C253.995 22.5149 255.2 23.1318 255.537 24.4778C255.679 25.0469 256.399 28.8403 257.175 34.7239C257.582 34.7676 257.921 35.1078 258.061 35.4144C259.463 38.4991 261.145 47.1923 261.426 49.2955C261.768 51.8582 261.005 80.563 260.865 81.9651C260.794 82.6769 259.711 83.6417 258.515 84.4374C258.504 84.5481 258.493 84.6588 258.481 84.7694C258.435 88.2747 258.201 95.9304 257.64 98.5103C256.939 101.735 250.209 106.082 248.947 106.783C247.685 107.484 247.405 103.137 247.264 97.1081C247.124 91.079 247.685 29.3853 248.386 25.4593Z" fill="#F25C05"/>
<path d="M256.097 35.3654C256.882 34.1316 257.805 34.8046 258.06 35.3654C259.462 38.4501 261.144 47.1433 261.425 49.2465C261.766 51.8092 261.004 80.514 260.864 81.9161C260.724 83.3183 256.657 85.7019 255.536 85.8421C254.414 85.9823 254.134 85.4215 253.853 84.44C253.573 83.4585 253.432 46.1618 253.573 42.9369C253.713 39.712 255.115 36.9078 256.097 35.3654Z" fill="#F25C05"/>
<path d="M257.157 34.6732C256.823 34.6446 256.446 34.8158 256.097 35.3655C255.115 36.9078 253.713 39.7121 253.573 42.937C253.432 46.1619 253.573 83.4585 253.853 84.44C254.134 85.4215 254.414 85.9823 255.536 85.8421C256.078 85.7743 257.308 85.1824 258.45 84.4306" stroke="#C03304" stroke-width="0.90725"/>
<path d="M272.553 145.349H2.05408" stroke="#DADADA" stroke-width="2.26812" stroke-linecap="round"/>
<path d="M61.0456 69.3037L60.8966 70.6235C61.3863 70.4156 62.1385 70.2047 63.1509 70.0392C61.8821 70.2365 61.483 70.2244 61.2329 69.7765C61.1642 69.6534 61.1067 69.4973 61.0456 69.3037Z" fill="#DADADA"/>
<path fill-rule="evenodd" clip-rule="evenodd" d="M64.3883 71.9499C66.0881 71.6844 68.3433 71.5612 70.8247 71.6801C71.2987 71.7028 72.1379 71.7643 72.6418 71.8054C75.1183 72.0073 77.2285 72.4096 80.4592 73.1547C80.6441 73.1973 80.8888 73.241 81.1473 73.2857L82.2777 73.5009C82.4609 73.5468 82.6453 73.5937 82.8309 73.6416C83.3677 73.78 83.8946 73.3773 83.8946 72.8229C83.8507 72.3278 82.8561 71.9442 82.2354 71.7773C82.1799 71.7633 82.1245 71.7494 82.0691 71.7355C75.9608 70.2079 71.1132 69.716 67.5511 69.7214C67.5231 69.7217 67.4948 69.7218 67.4665 69.7216C65.7442 69.7281 64.3259 69.8511 63.2146 70.0289C63.1932 70.0324 63.172 70.0359 63.1509 70.0392C62.1385 70.2047 61.3863 70.4156 60.8966 70.6235L61.2303 71.6799C61.2813 71.8414 61.408 71.9668 61.5729 72.0582C61.8934 72.2875 62.314 72.3101 62.7384 72.2131L64.3883 71.9499Z" fill="#DADADA"/>
<path fill-rule="evenodd" clip-rule="evenodd" d="M59.0666 62.8931C59.0666 63.0817 59.2237 63.548 59.2551 63.6473L59.681 64.9671L61.2329 69.7765L61.7872 71.4942C61.8186 71.5934 61.5094 71.8476 61.4101 71.879C61.3109 71.9103 61.172 71.6655 61.1406 71.5662L58.4765 63.5877C58.3124 63.0816 59.0665 62.7046 59.0666 62.8931Z" fill="#DADADA"/>
<path d="M61.2329 69.7765C61.483 70.2244 61.8821 70.2365 63.1509 70.0392C63.172 70.0359 63.1932 70.0324 63.2146 70.0289C64.3259 69.8511 65.7442 69.7281 67.4665 69.7216C64.6018 69.7045 60.4039 67.2075 59.681 64.9671L61.2329 69.7765Z" fill="#DADADA"/>
<path fill-rule="evenodd" clip-rule="evenodd" d="M36.4994 124.746C37.4331 123.812 39.1928 120.652 38.7619 115.481C38.2232 109.016 38.3309 107.724 39.6238 104.061C40.9166 100.397 41.6708 96.6267 38.7619 95.9803C37.2895 96.8063 34.3016 99.9665 34.1292 106C34.0987 107.068 34.0768 108.049 34.0566 108.959C33.9337 114.472 33.8699 117.338 32.2977 120.76C31.4751 122.55 30.9988 123.78 30.7393 124.569C30.5366 125.185 30.4662 125.532 30.4662 125.666C31.2101 125.551 31.9485 125.386 32.6652 125.227C34.0657 124.915 35.3837 124.622 36.4994 124.746Z" fill="#32A64F"/>
<path d="M38.7619 95.9803C35.853 95.3339 33.6983 97.5963 33.0519 98.7814L33.0422 98.7991C32.3822 100.009 30.0374 104.307 30.4662 110.632C30.8541 116.354 31.4166 121.123 30.7393 124.569C30.9988 123.78 31.4751 122.55 32.2977 120.76C33.8699 117.338 33.9337 114.472 34.0566 108.959C34.0768 108.049 34.0987 107.068 34.1292 106C34.3016 99.9665 37.2895 96.8063 38.7619 95.9803Z" fill="#1B8339"/>
<path fill-rule="evenodd" clip-rule="evenodd" d="M30.7393 124.569C30.6642 124.951 30.5738 125.317 30.4662 125.666C30.4662 125.532 30.5366 125.185 30.7393 124.569Z" fill="#1B8339"/>
<path fill-rule="evenodd" clip-rule="evenodd" d="M20.1235 124.886C20.3594 124.812 20.579 124.767 20.7699 124.746C21.8436 124.627 22.9976 124.894 24.2852 125.192C24.4116 125.221 24.5393 125.251 24.6683 125.28C24.6748 125.282 24.6813 125.283 24.6878 125.285L24.6683 125.28C23.3064 124.943 21.1988 119.009 20.7699 113.434C20.4251 108.952 16.1731 105.03 14.0902 103.63C12.2896 105.569 13.3361 108.693 14.0902 109.878C14.5994 110.678 15.1673 111.298 15.7199 111.901C17.0272 113.327 18.2482 114.658 18.3997 118.066C18.5146 120.651 19.513 123.69 20.1235 124.886Z" fill="#32A64F"/>
<path d="M19.4771 104.384C17.7533 102.445 15.4908 102.121 14.0902 103.63C16.1731 105.03 20.4251 108.952 20.7699 113.434C21.1988 119.009 23.3064 124.943 24.6683 125.28L24.675 125.282L24.6878 125.285C25.8767 125.556 27.1792 125.823 28.6347 125.823C28.8854 125.823 29.137 125.813 29.3888 125.794C27.3418 125.333 26.8031 119.79 26.6954 119.036C26.3876 116.881 23.8241 113.064 22.7092 111.71C21.2009 109.878 21.2009 106.323 19.4771 104.384Z" fill="#1B8339"/>
<path fill-rule="evenodd" clip-rule="evenodd" d="M24.675 125.282C24.6728 125.281 24.6705 125.281 24.6683 125.28L24.6878 125.285C24.6835 125.284 24.6793 125.283 24.675 125.282Z" fill="#1B8339"/>
<path fill-rule="evenodd" clip-rule="evenodd" d="M29.7121 126.07C29.748 124.438 29.1519 120.634 26.48 118.479C26.2488 118.293 26.0182 118.109 25.789 117.927C22.7067 115.47 19.8607 112.762 19.5849 107.706C19.4761 105.711 19.5138 104.144 19.5459 102.807C19.6092 100.171 19.5459 98.212 18.5075 96.0703C16.913 92.7817 15.5951 88.387 17.5379 86.1262C19.6567 87.358 23.9374 91.2652 24.1098 97.0399C24.1238 97.509 24.1364 97.9671 24.1488 98.4154C24.3267 104.866 24.4486 109.283 27.7728 114.924C30.6171 119.751 31.0367 123.687 30.8909 125.051C30.7913 125.349 30.6857 125.65 30.574 125.955C30.2873 126.001 29.9997 126.041 29.7121 126.07Z" fill="#32A64F"/>
<path d="M24.8639 88.8519C23.8943 86.4817 20.77 83.5729 18.0766 85.6199C17.8745 85.7734 17.6955 85.9428 17.5379 86.1262C19.6567 87.358 23.9374 91.2652 24.1098 97.0399C24.1238 97.509 24.1364 97.9671 24.1488 98.4154C24.3267 104.866 24.4486 109.283 27.7728 114.924C30.6171 119.751 31.0367 123.687 30.8909 125.051C33.7698 116.462 31.6906 111.063 29.7121 108.46C27.6651 105.767 26.48 101.888 26.48 98.7637C26.48 95.6393 25.8336 91.2221 24.8639 88.8519Z" fill="#1B8339"/>
<path d="M16.7837 129.917C16.8699 126.125 19.4771 124.89 20.77 124.746C21.3865 124.678 22.0296 124.736 22.7092 124.855C23.8182 125.05 25.0246 125.404 26.3723 125.626C27.0848 125.743 27.8368 125.823 28.6347 125.823C31.4359 125.823 34.3447 124.507 36.4995 124.746C37.0465 124.807 37.829 125.063 38.5561 125.626C39.5474 126.393 40.436 127.73 40.4857 129.917C40.5535 132.899 39.3424 138.482 37.4691 142.213C36.8215 143.503 36.0948 144.572 35.3144 145.235C34.7635 145.704 34.1859 145.97 33.5906 145.97H29.3889H28.6347H23.6788C23.3497 145.97 23.026 145.889 22.7092 145.737C20.6279 144.738 18.8464 140.694 17.7944 136.705C17.1198 134.147 16.7452 131.612 16.7837 129.917Z" fill="#F4F4F4"/>
<path fill-rule="evenodd" clip-rule="evenodd" d="M20.77 124.746C19.4771 124.89 16.8699 126.125 16.7837 129.917C16.7452 131.612 17.1198 134.147 17.7944 136.705C17.9996 128.344 21.1564 125.322 22.7092 124.855C22.0296 124.736 21.3865 124.678 20.77 124.746ZM26.3723 125.626C27.8447 126.554 29.906 130.068 26.3723 136.705C23.3556 141.984 22.7092 144.21 22.7092 145.737C23.026 145.889 23.3497 145.97 23.6788 145.97H28.6347H29.3889C28.2038 145.97 27.8806 143.277 28.6347 141.014C28.8655 140.322 29.2578 139.549 29.6942 138.688C30.6837 136.738 31.8998 134.341 31.9745 131.426C32.0607 128.064 29.7839 126.29 28.6347 125.823C27.8368 125.823 27.0848 125.743 26.3723 125.626ZM37.4691 142.213C36.8215 143.503 36.0948 144.572 35.3144 145.235C31.5436 141.807 34.5602 134.442 37.4691 130.887C39.7962 128.043 39.1634 126.194 38.5561 125.626C39.5474 126.393 40.436 127.73 40.4857 129.917C40.4315 131.426 39.9542 132.072 37.9 134.442C36.4995 136.058 35.4221 140.072 37.4691 142.213Z" fill="#DADADA"/>
</svg>
