<svg width="217" height="26" viewBox="0 0 217 26" fill="none" xmlns="http://www.w3.org/2000/svg">
<path d="M0 25.6486H5.43167V9.6973L12.4461 20.0973H12.59L19.6763 9.59189V25.6486H25.1799V1.05405H19.2087L12.59 11.4541L5.97124 1.05405H0V25.6486Z" fill="black"/>
<path d="M36.1211 26C38.783 26 40.6175 25.0514 41.9484 23.6108V25.6486H47.2362V14.7216C47.2362 12.1919 46.5887 10.1189 45.1499 8.71351C43.783 7.37838 41.6247 6.6054 38.6391 6.6054C35.3657 6.6054 33.2794 7.2027 31.1571 8.11622L32.524 12.1919C34.2866 11.5595 35.7614 11.173 37.8477 11.173C40.5815 11.173 41.9844 12.4027 41.9844 14.6162V14.9324C40.6175 14.4757 39.2146 14.1595 37.2722 14.1595C32.7038 14.1595 29.5024 16.0568 29.5024 20.1676V20.2378C29.5024 23.9622 32.488 26 36.1211 26ZM37.7758 22.3108C36.0132 22.3108 34.7902 21.4676 34.7902 20.027V19.9568C34.7902 18.2703 36.229 17.3568 38.5671 17.3568C39.8981 17.3568 41.1211 17.6378 42.0564 18.0595V19.0081C42.0564 20.9405 40.3297 22.3108 37.7758 22.3108Z" fill="black"/>
<path d="M51.9412 25.6486H57.4088V18.6919C57.4088 14.1946 59.639 12.0514 63.2721 12.0514H63.5599V6.46487C60.3225 6.32432 58.5239 8.01081 57.4088 10.6108V6.81622H51.9412V25.6486Z" fill="black"/>
<path d="M73.4868 25.9649C75.3214 25.9649 76.6523 25.5432 77.8034 24.8757V20.5892C77.012 21.0108 76.1128 21.2568 75.1056 21.2568C73.8825 21.2568 73.343 20.6595 73.343 19.4297V11.3838H77.8754V6.81622H73.343V2.0027H67.8753V6.81622H65.5732V11.3838H67.8753V20.3081C67.8753 24.6649 70.1415 25.9649 73.4868 25.9649Z" fill="black"/>
<path d="M87.3732 26C90.035 26 91.8696 25.0514 93.2005 23.6108V25.6486H98.4883V14.7216C98.4883 12.1919 97.8408 10.1189 96.402 8.71351C95.0351 7.37838 92.8768 6.6054 89.8912 6.6054C86.6178 6.6054 84.5314 7.2027 82.4091 8.11622L83.776 12.1919C85.5386 11.5595 87.0135 11.173 89.0998 11.173C91.8336 11.173 93.2365 12.4027 93.2365 14.6162V14.9324C91.8696 14.4757 90.4667 14.1595 88.5243 14.1595C83.9559 14.1595 80.7545 16.0568 80.7545 20.1676V20.2378C80.7545 23.9622 83.7401 26 87.3732 26ZM89.0279 22.3108C87.2653 22.3108 86.0422 21.4676 86.0422 20.027V19.9568C86.0422 18.2703 87.4811 17.3568 89.8192 17.3568C91.1502 17.3568 92.3732 17.6378 93.3084 18.0595V19.0081C93.3084 20.9405 91.5818 22.3108 89.0279 22.3108Z" fill="black"/>
<path d="M114.553 25.6486H119.985V9.6973L126.999 20.0973H127.143L134.229 9.59189V25.6486H139.733V1.05405H133.762L127.143 11.4541L120.524 1.05405H114.553V25.6486Z" fill="black"/>
<path d="M151.609 26C154.379 26 155.998 24.5595 157.257 22.9784V25.6486H162.725V6.81622H157.257V17.3216C157.257 19.8514 155.926 21.1514 153.84 21.1514C151.753 21.1514 150.53 19.8514 150.53 17.3216V6.81622H145.063V19.0081C145.063 23.3297 147.473 26 151.609 26Z" fill="black"/>
<path d="M167.618 25.6486H173.086V15.1432C173.086 12.6135 174.417 11.3135 176.503 11.3135C178.59 11.3135 179.813 12.6135 179.813 15.1432V25.6486H185.28V13.4568C185.28 9.13513 182.87 6.46487 178.734 6.46487C175.964 6.46487 174.345 7.90541 173.086 9.48649V6.81622H167.618V25.6486Z" fill="black"/>
<path d="M190.138 4.74324H195.894V0H190.138V4.74324ZM190.282 25.6486H195.75V6.81622H190.282V25.6486Z" fill="black"/>
<path d="M200.237 25.6486H217V21.327H207L217 10.5757V6.81622H200.561V11.1378H210.201L200.237 21.8892V25.6486Z" fill="black"/>
<path fill-rule="evenodd" clip-rule="evenodd" d="M184.904 4.78228H167.808V0.0975952H184.904V4.78228Z" fill="#418EF2"/>
</svg>
